<svg width="250" height="250" viewBox="0 0 250 250" fill="none" xmlns="http://www.w3.org/2000/svg">
<path d="M145.176 179.163C143.801 175.5 136.963 177.913 130.913 172.913C128.413 170.825 125.913 162.538 125.913 162.538C125.913 162.538 132.163 166.988 135.776 163.713C139.388 160.438 137.751 150.95 130.776 153.4C123.376 156.025 121.451 153.213 113.001 150.325C104.551 147.438 99.5132 152.738 99.5132 152.738C86.5257 151.2 78.5757 153.85 72.4882 157.213C67.1132 150.963 57.1132 155.438 52.1382 160.125C46.3757 165.55 47.4882 169.975 48.1507 171.375C40.8632 177.025 40.6507 182.763 41.1632 187.025C41.5859 191.507 43.3875 195.748 46.32 199.164C49.2525 202.58 53.1717 205.003 57.5382 206.1C57.5382 206.1 57.3382 215.475 59.9382 216.325C62.5382 217.175 63.5507 213.938 68.6882 211.325C74.2382 209.875 80.1257 204.125 77.0257 200.075C83.9382 204.363 94.3632 201.75 95.2257 190.625C98.6257 197.225 114.238 196.425 122.726 192.763C123.751 200.625 121.251 208.063 117.851 211.25C112.851 215.9 108.738 215.525 106.176 217.725C103.613 219.925 109.701 226.663 123.676 217.988C136.063 210.288 136.963 197.075 128.351 186.388C136.901 188.75 146.601 182.95 145.176 179.163ZM73.6132 180.55C73.5257 180.75 71.9132 171.45 80.1757 167.138C85.8632 164.163 92.4382 166.188 93.1757 170.725C94.1382 176.675 77.8132 169.575 73.6132 180.55Z" fill="#3461FD"/>
<path d="M54.0633 142.788C50.1383 140.113 56.7258 118.338 63.9508 118.688C72.4508 119.1 85.4008 137.788 80.8633 144.538C78.3758 148.238 60.6258 147.25 54.0633 142.788Z" fill="#3461FD"/>
<path d="M31.7759 127.5C30.0384 126.25 32.9509 116.25 36.1384 116.363C39.8884 116.55 45.6134 125.188 43.6384 128.313C42.5009 130 34.6759 129.588 31.7759 127.5Z" fill="#3461FD"/>
<path d="M87.8133 121.65C86.3758 120.65 88.7758 112.575 91.4008 112.7C94.4883 112.863 99.1883 119.788 97.5383 122.3C96.6383 123.675 90.1883 123.3 87.8133 121.65Z" fill="#3461FD"/>
<path d="M171.901 38.1625C171.901 38.1625 183.863 30.0876 187.451 32.0626C191.663 34.3876 189.363 35.9376 191.663 38.0126C194.676 40.7376 207.213 36.4751 209.638 39.2626C212.863 43.0126 207.138 46.875 208.826 50.6C210.513 54.325 219.188 54.9376 219.188 57.0126C219.188 59.7751 215.438 59.4001 215.151 62.0126C215.001 63.1501 217.188 68.1876 215.488 69.0501C213.788 69.9126 207.288 61.975 202.801 62.725C199.513 63.275 197.026 67.4 193.838 67.3125C188.926 67.175 179.838 58.175 176.813 60.1125C173.788 62.05 172.826 67.3001 169.663 67.1751C166.501 67.0501 162.763 58.65 160.401 59.2375C158.038 59.825 153.751 67.4251 151.251 66.9001C148.56 66.1328 145.773 65.7622 142.976 65.8001C139.926 65.9126 132.638 70.1751 127.851 69.2126C125.351 68.7126 123.401 65.9125 121.263 66.475C117.738 67.3875 114.726 72.9125 113.276 71.8875C112.088 71.05 114.226 67.4375 113.276 65.5625C112.726 64.525 109.526 63.9376 109.163 62.0876C108.676 60.0001 117.963 56.925 118.163 53.75C118.363 50.575 116.413 51.25 117.451 47.9875C118.488 44.725 128.126 46.8126 131.526 47.5126C135.838 52.9876 143.513 60.0125 161.013 54.35C170.551 51.25 171.901 38.1625 171.901 38.1625Z" fill="#3461FD"/>
<path d="M163.226 114.875C160.563 115.763 158.163 116.2 155.801 114.55C155.451 114.298 155.016 114.195 154.59 114.265C154.165 114.334 153.784 114.569 153.532 114.919C153.28 115.269 153.177 115.704 153.247 116.13C153.316 116.555 153.551 116.936 153.901 117.188C157.438 119.688 161.163 119.05 164.401 117.913C164.804 117.757 165.128 117.447 165.303 117.052C165.477 116.657 165.488 116.209 165.332 115.806C165.176 115.403 164.867 115.079 164.472 114.904C164.077 114.73 163.629 114.719 163.226 114.875Z" fill="black"/>
<path d="M162.963 99.9001C160.735 98.8677 158.24 98.5532 155.826 99.0001C153.326 99.4751 151.463 100.8 152.263 102.1C152.48 102.469 152.832 102.74 153.244 102.857C153.656 102.973 154.097 102.926 154.476 102.725C156.451 101.475 159.651 101.8 162.151 102.938C162.505 102.93 162.847 102.807 163.126 102.588C163.404 102.369 163.605 102.066 163.696 101.724C163.788 101.381 163.766 101.018 163.634 100.69C163.501 100.361 163.266 100.084 162.963 99.9001Z" fill="black"/>
<path d="M128.175 79.3626C130.938 78.3876 132.563 77.2751 136.263 77.6501C138.65 77.9001 138.675 74.6001 136.425 74.2876C133.321 74.0339 130.212 74.7175 127.5 76.2501C125.613 77.2751 126.875 79.8376 128.175 79.3626Z" fill="black"/>
<path d="M133.751 81.0125C117.163 83.1 121.513 105.513 136.338 104.263C151.638 102.975 148.663 79.15 133.751 81.0125ZM142.676 96.325C142.096 97.7621 141.071 98.9756 139.751 99.7875C136.001 96.5625 130.226 92.4 126.726 89.95C130.376 79.2125 147.338 84.6125 142.726 96.325H142.676Z" fill="black"/>
<path d="M154.826 95.875C154.985 96.0415 155.178 96.1722 155.391 96.2585C155.605 96.3448 155.834 96.3847 156.065 96.3755C156.295 96.3664 156.52 96.3084 156.726 96.2055C156.932 96.1026 157.114 95.957 157.26 95.7784C157.405 95.5999 157.511 95.3924 157.57 95.1698C157.63 94.9473 157.641 94.7146 157.603 94.4873C157.566 94.2601 157.481 94.0434 157.353 93.8516C157.225 93.6598 157.058 93.4974 156.863 93.375C151.926 90.275 156.576 84.8375 161.326 86.8375C163.276 87.6625 164.601 84.55 162.576 83.85C161.155 83.3372 159.633 83.1672 158.134 83.354C156.636 83.5408 155.202 84.0791 153.951 84.925C150.576 87.5 149.738 92.4 154.826 95.875Z" fill="black"/>
<path d="M182.338 76.5375C164.838 76.4625 167.163 102 183.038 100.288C198.325 98.75 196.738 76.6 182.338 76.5375ZM186.688 95.7875C183.063 92.5625 177.1 88.2875 173.425 85.7C179.463 71.625 199.325 85.2625 186.688 95.7875Z" fill="black"/>
<path d="M166.563 105.9C164.75 107.388 160.825 108.963 159.575 106.038C159.44 105.722 159.209 105.457 158.916 105.28C158.622 105.103 158.28 105.022 157.938 105.05C154.838 105.25 157.213 109.863 151.925 106.125C150.2 104.875 148.638 107.063 149.95 108.713C151.513 110.688 156.425 112.663 158.3 109.688C161.175 113.438 167.05 110.188 168.825 107.938C169.068 107.634 169.186 107.249 169.154 106.861C169.122 106.473 168.944 106.112 168.655 105.852C168.366 105.592 167.988 105.452 167.599 105.461C167.21 105.47 166.84 105.627 166.563 105.9Z" fill="black"/>
<path d="M174.688 72.9626C177.428 72.2988 180.298 72.3939 182.988 73.2376C184.238 73.5626 185.238 71.1501 183.713 70.1626C181.376 68.6376 175.913 68.9126 173.826 69.8251C173.41 69.9394 173.056 70.2144 172.843 70.5895C172.629 70.9645 172.574 71.409 172.688 71.8251C172.802 72.2411 173.077 72.5947 173.453 72.808C173.828 73.0213 174.272 73.0769 174.688 72.9626Z" fill="black"/>
<path d="M35.9131 124.563C34.1631 124.713 34.1881 127.063 36.3756 126.875C38.1756 126.638 38.0881 124.225 35.9131 124.563Z" fill="black"/>
<path d="M67.0882 138.125C69.1757 137.638 69.2756 137.175 69.1631 132.25C69.0506 126.938 68.5507 118.713 62.9882 119.75C57.2132 119.913 62.0757 139.325 67.0882 138.125Z" fill="black"/>
<path d="M56.5004 193.013C54.2879 193.238 53.6129 193.813 53.7379 194.95C53.8379 195.788 54.4754 196.513 56.2379 196.388C57.6754 196.288 60.2254 197.713 61.1254 200.525C62.0254 203.338 64.7129 201.875 64.3254 199.563C63.8879 196.463 60.7129 192.588 56.5004 193.013Z" fill="black"/>
<path d="M67.8251 139.875C63.5001 140.713 63.9376 146.7 68.0751 146.413C72.7126 146.088 72.5001 138.963 67.8251 139.875Z" fill="black"/>
<path d="M37.0008 121.6C36.9807 120.617 36.7639 119.648 36.3633 118.75C36.0133 118.25 34.4633 118.263 33.8633 118.75C32.8258 119.563 33.6883 123.875 35.2883 123.863C36.3508 123.75 37.2133 123.488 37.0008 121.6Z" fill="black"/>
<path d="M240.938 176.388C237.652 176 234.346 175.808 231.038 175.813C240.475 163.613 243.75 155.675 243.75 145.813C243.75 126.025 224.713 104.038 210.213 94.7375C216.35 91.8875 221.225 85.425 220.613 78.2875C225.263 76.1125 222.975 68.65 223.7 64.45C225.238 61.6125 229.7 61.075 228.788 55.625C228.038 47.4625 213.288 52.1875 216.55 43.25C217.225 40.675 218.163 37.1375 215.375 34.275C212.488 30.5875 200.713 33.525 196.813 31.6C195.063 18.6375 187.025 21.075 177.663 26.8625C159.738 7.50004 126.25 14.05 103.863 28.75C93.0005 35.95 76.663 54.15 87.4255 94.825C73.463 94.5875 56.1754 94.2 41.4879 94.0875C5.52545 93.75 1.63795 97.975 9.87545 127.725C12.3755 141.413 16.1255 158.638 18.3005 168.325C20.463 177.075 20.538 186.3 27.638 190.025C20.738 202.013 28.5005 205.025 37.638 199.813C40.699 204.124 44.8246 207.569 49.6129 209.813C48.8129 228.225 58.838 223.45 67.113 213.675C69.988 211.738 73.288 212.425 76.4255 209.563C90.263 218.838 102.388 212.65 117.9 208.725C113.875 215.95 93.3505 216.988 91.6505 223.375C89.8255 230.363 94.3004 234.8 99.8879 235.163C112.875 236 134.025 223.725 136.138 204.625C145.738 202.313 169.263 197.05 174.65 194.225C177.338 192.975 177.363 189.388 177.363 187.438C177.488 183.4 175.713 182.438 165.45 178.763C185.125 180.138 226.225 179 240.45 179.063C242.5 179.075 243.063 176.363 240.938 176.388ZM213.263 89.2625C207.175 93.9125 204.338 92.1 204.213 97.5875C203.85 114.513 178.05 122.363 157.413 123.475C154 123.65 151.075 123.35 148.038 123.238C138.475 122.888 131.95 119.938 128.45 116.988C124.612 113.908 121.501 110.02 119.338 105.6C115.662 97.1408 114.854 87.7112 117.038 78.75C120.913 73.95 120.588 72.5 122.225 72.25C123.475 72.025 126.775 74.5625 129.725 74.0125C134.2 73.2 138.85 68.4125 142.55 67.1C146.3 67.725 149.413 73.35 153.8 72.4625C158.288 72.0625 159.6 65.0875 162.85 63.7125C165.1 64.5 166.45 68.5 170.088 68.05C177.838 66.6375 174.113 57.7875 182.938 66.725C187.325 71.35 190.763 73.125 194.338 72.8875C198.625 72.6125 200.8 68.6875 203.65 68.7625C207.163 68.85 212.513 78.3 217.4 78.7625C217.659 80.7201 217.415 82.7112 216.691 84.5483C215.967 86.3854 214.788 88.0078 213.263 89.2625ZM179.013 29.9125C182.55 27.525 188.613 24.8125 190.6 25.475C193.35 26.4 192.375 31.725 194.35 33.7625C197.025 37.425 209.663 34.025 213.1 36.5875C216.188 39.7875 210.425 46 214.05 49.65C216.463 53.025 224.813 52.35 225.638 56.1875C225.513 61.5875 218.8 59.775 220.4 69.1C221.3 85.875 209.388 64.3625 203.363 65.5C199.3 66 198.013 69.9 193.638 69.8375C187.388 69.375 177.95 52.5 172.488 62.7625C171.688 64.0125 171.238 64.6875 169.925 64.775C167.288 64.6 166.088 59.9 162.6 60.45C158.125 60.625 156.925 68.125 153.325 69.2C149.988 69.2 146.638 63.6125 142.825 63.8C137.5 64.0625 131.463 73.8 125.325 69.525C124.871 69.1797 124.349 68.9325 123.794 68.7991C123.239 68.6657 122.662 68.649 122.1 68.75C117.963 69.125 114.363 80.5875 110.175 78.425C106.863 77.0125 111.738 71.025 107.475 66.925C103.725 63.3625 99.1129 61.2125 106.638 58.4125C123.475 52.1625 94.4629 42.1625 126.513 42.9625C132.975 63.625 172.363 62.725 173.4 39.2125C177.288 37.6875 180 34.0125 179.013 29.9125ZM105.663 31.4C122.6 20.0625 142.913 15.4 159.788 19.8C169.525 22.3 181.45 29.425 172.988 35.8125C172.427 33.8098 171.443 31.9511 170.1 30.3625C168.713 28.775 166.563 30.475 167.988 32.025C171.325 35.625 171.1 43.65 167.538 47.025C166.654 44.8517 165.44 42.8279 163.938 41.025C163.659 40.6935 163.261 40.4862 162.829 40.4487C162.398 40.4112 161.969 40.5466 161.638 40.825C161.306 41.1035 161.099 41.5023 161.062 41.9336C161.024 42.365 161.159 42.7935 161.438 43.125C162.788 44.725 164.738 47.8 164.85 49.7875C161.552 52.3143 157.611 53.8647 153.475 54.2625C153.033 51.3083 152.113 48.4458 150.75 45.7875C150.555 45.403 150.215 45.1119 149.804 44.9783C149.394 44.8446 148.948 44.8795 148.563 45.075C148.178 45.2706 147.887 45.611 147.754 46.0212C147.62 46.4315 147.655 46.878 147.85 47.2625C149.012 49.5232 149.809 51.9531 150.213 54.4625C139.663 54.5625 128.825 48.475 128.563 36.1375C128.55 35.7054 128.366 35.296 128.053 34.9986C127.739 34.7012 127.32 34.5399 126.888 34.55C124.388 34.8125 125.525 38.0125 125.638 39.625C112.6 38.8875 103.788 41.875 108.388 50.8C110.075 54.0875 107.975 54.0875 105.313 55.4125C93.3505 60.4125 99.3754 65.05 106.038 70.4875C106.4 73.1 104.788 76.7375 106.525 79.45C100.425 81.7875 91.6254 82.625 88.2004 82.8625C84.5754 59.5125 90.5879 41.4875 105.663 31.4ZM24.263 179.463C20.2505 162.838 17.138 147.775 13.0755 127.15C11.8255 119.775 7.23795 106.613 10.7005 101.888C20.213 93.675 59.6004 98.525 75.9754 97.825C87.1754 98.75 96.663 96.25 103.75 101.8C110.5 107.138 110.825 132.55 114.838 141.438C110.6 140.063 103.275 143.075 100.85 144.975C98.2962 144.71 95.7232 144.677 93.1629 144.875C88.8254 133.625 71.913 109.188 61.2755 112.163C51.963 114.775 43.888 141.338 43.213 151.15C36.488 156.15 35.9505 165.15 38.3755 168.25C28.6755 175.75 32.6755 184.275 29.4005 187.275C27.5005 186.413 25.213 183.413 24.263 179.463ZM123.075 148.65C131.525 154.45 139.05 147.163 141.388 152.963C143.238 157.55 135.238 162.963 132.538 164.213C125.038 156.838 118.788 147.888 106.05 145.763C111.913 142.5 118.85 145.75 123.075 148.65ZM48.0755 160.438L49.3255 161.138C46.2641 162.285 43.4164 163.937 40.9005 166.025C36.088 154.1 56.7754 145.8 66.1379 151.025C74.6504 154.538 69.3505 161.475 60.638 160.825C54.7755 160.438 52.538 159.338 49.813 157.688C49.45 157.5 49.0298 157.456 48.6359 157.564C48.242 157.673 47.9034 157.925 47.6874 158.272C47.4715 158.619 47.3941 159.034 47.4706 159.436C47.5472 159.837 47.772 160.195 48.1004 160.438H48.0755ZM46.9505 148.738C48.4005 140.488 55.7004 117.138 62.6129 115.688C69.5254 114.238 85.638 134.775 89.2755 145.225C83.0756 145.707 77.0784 147.652 71.7755 150.9C67.9255 146.6 56.1254 143.975 46.9754 148.75L46.9505 148.738ZM76.7879 203.963C73.1754 210.213 69.438 207.863 64.988 211.15C59.638 216.15 52.163 225.85 52.688 211.15C55.188 212.85 59.2755 210.913 55.813 208.65C48.5129 206.875 39.563 200.363 37.988 192.938C37.8951 192.516 37.6394 192.148 37.2765 191.914C36.9136 191.68 36.473 191.598 36.0505 191.688C33.613 192.463 35.3755 195.438 35.963 197C33.813 197.963 30.6255 200.413 28.763 199.225C25.738 197.288 33.8505 188.2 34.1005 183.05C34.8005 173.15 45.9754 164.3 54.2879 163.175C62.0754 165.875 75.8755 162.563 73.4005 153.8C85.013 145.788 110.263 145.85 121 156.788C117.9 154.588 111.338 154.363 107.25 156.038C102.575 157.938 99.613 160.8 101.313 162.738C101.469 162.888 101.654 163.005 101.857 163.08C102.06 163.156 102.277 163.188 102.493 163.175C102.71 163.162 102.921 163.104 103.114 163.005C103.306 162.906 103.476 162.768 103.613 162.6C115.238 151.238 129.288 166.2 137.788 172.688C141.025 174.625 151.038 172.35 152.188 176C153.55 183.675 141.588 188.5 135.05 188.3C131.3 188.075 126.475 183.788 124.95 182.15C123.425 180.513 121.1 182.863 122.575 184.375C123.546 185.384 124.581 186.327 125.675 187.2C122.638 196.05 107.588 198.525 97.9129 197.05C98.2129 190.8 95.9629 186.65 91.8504 182.763C103.975 172.4 90.7629 157.225 77.688 167.125C72.2629 171.238 68.2379 178.3 71.1379 183.375C71.3609 183.733 71.7142 183.99 72.1233 184.092C72.5323 184.194 72.965 184.134 73.3301 183.923C73.6951 183.712 73.9639 183.367 74.0797 182.962C74.1954 182.556 74.1491 182.122 73.9504 181.75C72.2379 178.763 74.8255 173.288 79.613 169.788C81.988 166.888 93.6505 164.988 93.463 173.775C93.0505 177.188 89.6255 180.938 86.4005 183.125C84.113 185.313 87.8129 187.263 89.3879 184.975C102.175 195.425 89.2505 211.325 77.3755 200.125C74.2255 198.1 73.4005 202.288 76.813 203.963H76.7879ZM111.325 207.1C97.5754 210.6 90.6505 214.413 78.6505 207.038C78.9505 206.629 79.2505 206.179 79.5505 205.688C84.8505 209.188 95.4255 205.525 97.0505 200.2C104.463 201.7 115.8 199.75 121.038 196.875C121.298 199.539 120.969 202.227 120.075 204.75C116.838 205.6 113.95 206.388 111.35 207.1H111.325ZM118.188 225.775C112.875 228.863 107.063 231.9 101.75 232.025C97.038 232.138 94.013 229.45 94.738 225.25C95.2255 222.413 99.2255 221.5 102 220.325C112.75 215.925 126.225 215.013 124.013 194.788C125.824 193.224 127.288 191.3 128.313 189.138C136.975 197.388 133.575 216.638 118.213 225.775H118.188ZM174.038 186.95C174.038 187.95 174.125 190.7 173.263 191.225C168.538 193.85 145.888 198.95 136.25 201.225C136.067 197.867 135.31 194.565 134.013 191.463C142.338 192.163 153.475 187.1 155.5 178.8C166.975 182.7 174.1 184.688 174.063 186.95H174.038ZM155.288 175.325C152.063 166.575 140.038 173.888 135.1 166.575C142.113 162.963 146.025 155.963 144.125 151.575C142.313 147.35 139.225 147.238 132.55 148.038C126.738 148.725 123.938 144.388 118.65 142.613C114.763 132.775 114.313 120.113 111.825 110.55C109.575 101.563 105.125 95 90.8005 94.85C89.988 91.875 89.313 88.9625 88.7755 86.1C92.9755 85.7875 103.213 84.75 109.65 81.6625C110.881 82.0546 112.212 81.9925 113.4 81.4875C110 105 122.375 125 146.913 126.075C142.138 130.8 142.6 135.763 135.988 130.35C135.687 130.039 135.282 129.85 134.85 129.82C134.419 129.79 133.991 129.921 133.65 130.188C132.563 131.263 133.338 132.963 136.375 134.85C140.125 137.175 142.875 137.463 146.138 132.888C149.038 128.85 150.463 126.525 151.925 126.463C155.675 126.275 155.125 135.838 162.613 137.138C166.45 137.813 169.338 135.563 171.638 133C173.063 131.413 171.163 129.125 169.438 130.65C166.15 133.563 161.113 136.9 157.213 126.463C177.213 125.763 207.75 118.163 207.213 96.8125C215.838 101.413 229.6 113.313 235.675 126.113C223.175 126.363 204.425 132.6 189.775 146.438C187.275 142.188 186.375 139.225 184.388 139.675C182.713 140.05 182.925 142.6 186.725 148.863C176.475 159.663 172.7 171.363 172.1 175.675C166.25 175.475 160 175.313 155.338 175.325H155.288ZM175.788 175.825C177.518 167.606 181.39 159.99 187.013 153.75C199.85 139.138 218.763 128.563 237.188 129.375C245.725 149.7 237.838 162.05 226.775 175.788C190.85 176.075 208.3 177 175.838 175.825H175.788Z" fill="black"/>
<path d="M60.2882 179.125C60.0132 175.975 57.5382 174.125 54.0382 174.375C51.3507 174.563 49.9757 176.738 51.1632 177.788C52.3507 178.838 53.3132 176.875 55.1507 177.7C55.5189 177.862 55.8375 178.119 56.0741 178.444C56.3107 178.77 56.4568 179.152 56.4974 179.552C56.5381 179.953 56.4719 180.356 56.3056 180.723C56.1392 181.089 55.8788 181.405 55.5507 181.638C51.8632 180.275 51.2007 184.313 53.0507 187.15C55.4132 191.425 61.4007 188.8 58.3632 183.913C59.6132 182.25 61.7382 181.313 62.8382 184.188C63.5507 186.063 62.4507 188.1 64.0882 188.713C67.3257 190 67.9882 178.45 60.2882 179.125Z" fill="black"/>
<path d="M42.9627 180.875C40.7502 180.875 40.0127 181.338 40.0127 182.488C40.0127 183.338 40.5627 184.125 42.3877 184.2C43.5058 184.445 44.5236 185.022 45.3068 185.857C46.0901 186.691 46.602 187.744 46.7752 188.875C47.3252 191.663 50.1752 190.613 50.0627 188.288C49.9127 185.15 47.2002 180.925 42.9627 180.875Z" fill="black"/>
<path d="M25.4755 150.325C22.663 135.988 16.5005 113.888 19.0755 108.85C21.2005 104.725 33.7755 106.35 40.563 105.775C54.4505 105.775 69.2505 105.438 88.463 105.663C95.138 105.813 100.625 104.988 102.7 111.663C103.35 113.738 105.65 114.163 105.3 111.05C104.325 102.3 96.238 102.563 88.513 102.4C74.763 102.25 55.6005 102.4 48.3505 102.538C11.2505 102.5 11.063 98.1375 19.0505 136.063C20.4005 139.638 22.663 156.9 24.813 165.975C25.9505 170.788 26.663 172.438 27.863 172.113C29.063 171.788 28.9255 170.238 28.113 166.075C27.3005 161.913 25.8255 153.75 25.4755 150.325Z" fill="black"/>
<path d="M27.4006 118.863C24.2006 125.238 24.3631 128.863 26.1506 130.575C28.4006 132.75 34.6381 131.163 39.2506 130.975C48.9881 130.575 49.1381 125.35 43.0006 118.05C36.8631 110.75 32.0881 109.538 27.4006 118.863ZM43.3631 126.025C43.1381 127.675 36.5256 128.1 33.5131 128.3C28.4131 128.65 26.6756 128.088 30.2381 120.463C33.2756 113.938 36.0756 114.213 40.4506 120.138C41.8631 122.075 43.5506 124.575 43.3631 126.025Z" fill="black"/>
<path d="M93.3502 120.138C94.2752 120.138 94.6877 119.488 94.3877 118.088C94.1502 115.675 93.3002 113.775 91.6377 115.338C90.7752 116.15 91.8127 120.263 93.3502 120.138Z" fill="black"/>
<path d="M91.9259 110.15C86.1884 111.25 83.6134 123.288 85.8134 125.4C88.3134 127.763 92.3384 126.575 96.1509 126.4C103.451 126.05 104.163 122.338 100.688 116.938C97.0759 111.313 94.4884 109.663 91.9259 110.15ZM100.001 122.25C99.3509 123.425 97.9134 123.5 96.5509 123.613C89.4759 124.138 84.6634 126.825 89.0509 116.475C93.2759 106.475 100.901 120.663 100.001 122.25Z" fill="black"/>
<path d="M93.8127 120.688C92.2877 120.838 92.3127 123.075 94.2252 122.863C95.8002 122.638 95.7252 120.375 93.8127 120.688Z" fill="black"/>
</svg>
