<svg width="24" height="24" viewBox="0 0 24 24" fill="none" xmlns="http://www.w3.org/2000/svg">
<path d="M13.75 3H13.816C15.1087 3 16.2449 3.85698 16.6 5.1L16.6816 5.38566C16.8701 6.04525 17.4729 6.5 18.1589 6.5V6.5C20.2803 6.5 22 8.21971 22 10.3411V15.5C22 18.2614 19.7614 20.5 17 20.5H7C4.23858 20.5 2 18.2614 2 15.5V10.3411C2 8.21971 3.71971 6.5 5.84107 6.5V6.5C6.52705 6.5 7.12993 6.04525 7.31838 5.38566L7.4 5.1C7.75515 3.85698 8.89128 3 10.184 3H10.25" stroke="#2B3F6C" stroke-width="2" stroke-linecap="round"/>
<path d="M9 12.5C9 10.8431 10.3431 9.5 12 9.5C13.6569 9.5 15 10.8431 15 12.5C15 14.1569 13.6569 15.5 12 15.5C11.5857 15.5 11.191 15.416 10.8321 15.2642" stroke="#2B3F6C" stroke-width="2" stroke-linecap="round"/>
</svg>
