<svg width="24" height="24" viewBox="0 0 24 24" fill="none" xmlns="http://www.w3.org/2000/svg">
<path d="M20.7994 11.2156L21.6768 10.7358L20.7994 11.2156ZM20.7994 12.7846L21.6768 13.2644L20.7994 12.7846ZM3.20058 11.2154L4.07795 11.6953L3.20058 11.2154ZM3.20057 12.7844L2.3232 13.2642L2.3232 13.2642L3.20057 12.7844ZM19.6981 8.13007C19.3027 7.74451 18.6696 7.75251 18.284 8.14794C17.8985 8.54336 17.9065 9.17648 18.3019 9.56204L19.6981 8.13007ZM9.74837 16.7175C9.21339 16.5803 8.66851 16.9028 8.53134 17.4378C8.39416 17.9727 8.71665 18.5176 9.25163 18.6548L9.74837 16.7175ZM14.604 6.34114L14.3452 7.30707L14.604 6.34114ZM7.07264 16.7089L6.58078 17.5796L7.64878 15.8915L7.07264 16.7089ZM4.07795 11.6953C5.60871 8.89624 8.58274 7 12 7V5C7.82397 5 4.1913 7.31981 2.32322 10.7356L4.07795 11.6953ZM19.9221 12.3047C18.3913 15.1038 15.4173 17 12 17V19C16.176 19 19.8087 16.6802 21.6768 13.2644L19.9221 12.3047ZM19.9221 11.6954C20.026 11.8854 20.026 12.1147 19.9221 12.3047L21.6768 13.2644C22.1077 12.4764 22.1077 11.5238 21.6768 10.7358L19.9221 11.6954ZM2.32322 10.7356C1.89227 11.5236 1.89226 12.4762 2.3232 13.2642L4.07794 12.3046C3.97402 12.1146 3.97402 11.8853 4.07795 11.6953L2.32322 10.7356ZM18.3019 9.56204C18.9425 10.1867 19.49 10.9054 19.9221 11.6954L21.6768 10.7358C21.1486 9.76984 20.4798 8.89223 19.6981 8.13007L18.3019 9.56204ZM12 17C11.2213 17 10.467 16.9017 9.74837 16.7175L9.25163 18.6548C10.1313 18.8803 11.0524 19 12 19V17ZM12 7C12.8125 7 13.5985 7.10699 14.3452 7.30707L14.8628 5.37522C13.9488 5.1303 12.9889 5 12 5V7ZM6.09358 14.8014C5.28126 14.0981 4.59643 13.2527 4.07794 12.3046L2.3232 13.2642C2.95711 14.4234 3.79346 15.4554 4.78453 16.3134L6.09358 14.8014ZM7.56451 15.8382C7.03935 15.5415 6.54675 15.1937 6.09358 14.8014L4.78453 16.3134C5.33758 16.7922 5.93905 17.217 6.58078 17.5796L7.56451 15.8382ZM4.86292 16.3748L6.4965 17.5262L7.64878 15.8915L6.0152 14.74L4.86292 16.3748ZM14.3452 7.30707C15.0427 7.49396 15.7069 7.76235 16.3271 8.10153L17.2868 6.34681C16.5287 5.93223 15.7163 5.6039 14.8628 5.37522L14.3452 7.30707Z" fill="#2B3F6C"/>
<path d="M19.4645 4.46433L4.46448 19.4643" stroke="#2B3F6C" stroke-width="2" stroke-linecap="round" stroke-linejoin="round"/>
<path d="M9 12C9 10.3431 10.3431 9 12 9" stroke="#2B3F6C" stroke-width="2" stroke-linecap="round"/>
</svg>
