<svg width="24" height="24" viewBox="0 0 24 24" fill="none" xmlns="http://www.w3.org/2000/svg">
<path d="M7.42868 6.32143C7.42868 8.84616 9.47537 10.8929 12.0001 10.8929C14.5248 10.8929 16.5715 8.84616 16.5715 6.32143C16.5715 3.7967 14.5248 1.75 12.0001 1.75" stroke="#2B3F6C" stroke-width="2" stroke-linecap="round"/>
<path d="M4 17.6754C4 16.6921 4.61812 15.815 5.5441 15.4843V15.4843C9.71891 13.9933 14.2811 13.9933 18.4559 15.4843V15.4843C19.3819 15.815 20 16.6921 20 17.6754V19.444C20 20.6611 18.922 21.596 17.7172 21.4239L15.8184 21.1526C13.2856 20.7908 10.7144 20.7908 8.18162 21.1526L6.28284 21.4239C5.07798 21.596 4 20.6611 4 19.444V17.6754Z" stroke="#2B3F6C" stroke-width="2"/>
</svg>
